<svg preserveAspectRatio="none" width="100%" height="100%" overflow="visible" style="display: block;" viewBox="0 0 126 126" fill="none" xmlns="http://www.w3.org/2000/svg">
<g id="Group">
<g id="Group_2" filter="url(#filter0_i_2103_2129)">
<path id="Vector" d="M72.508 102.485C74.4835 101.621 75.3025 100.361 75.8965 99.6183C81.2335 92.9583 69.853 73.1808 53.6035 61.7373C36.382 46.7433 17.4235 41.6313 12.0865 48.2958C11.173 49.4388 10.453 50.9958 10.156 52.7508L0.0310377 111.008C-0.319962 118.109 2.39354 120.809 3.75254 122.123C6.21404 124.517 10.9975 126.546 15.9925 124.791C35.257 117.371 53.311 110.855 72.508 102.485Z" fill="url(#paint0_linear_2103_2129)"/>
</g>
<path id="Vector_2" d="M72.5089 102.484C74.4844 101.62 75.3034 100.36 75.8974 99.6175C81.2344 92.9575 69.8539 73.18 53.6044 61.7365C36.3829 46.7425 17.4244 41.6305 12.0874 48.295C11.1739 49.438 10.4539 50.995 10.1569 52.75L0.0318747 111.007C-0.319125 118.108 2.39437 120.808 3.75337 122.122C6.21487 124.516 10.9984 126.545 15.9934 124.79C35.2579 117.37 53.3119 110.854 72.5089 102.484Z" fill="url(#paint1_linear_2103_2129)"/>
<path id="Vector_3" d="M72.5089 102.484C74.4844 101.62 75.3034 100.36 75.8974 99.6175C81.2344 92.9575 69.8539 73.18 53.6044 61.7365C36.3829 46.7425 17.4244 41.6305 12.0874 48.295C11.1739 49.438 10.4539 50.995 10.1569 52.75L0.0318747 111.007C-0.319125 118.108 2.39437 120.808 3.75337 122.122C6.21487 124.516 10.9984 126.545 15.9934 124.79C35.2579 117.37 53.3119 110.854 72.5089 102.484Z" fill="url(#paint2_linear_2103_2129)"/>
<path id="Vector_4" d="M72.5089 102.484C74.4844 101.62 75.3034 100.36 75.8974 99.6175C81.2344 92.9575 69.8539 73.18 53.6044 61.7365C36.3829 46.7425 17.4244 41.6305 12.0874 48.295C11.1739 49.438 10.4539 50.995 10.1569 52.75L0.0318747 111.007C-0.319125 118.108 2.39437 120.808 3.75337 122.122C6.21487 124.516 10.9984 126.545 15.9934 124.79C35.2579 117.37 53.3119 110.854 72.5089 102.484Z" fill="url(#paint3_linear_2103_2129)"/>
<g id="Group_3" filter="url(#filter1_f_2103_2129)">
<path id="Vector_5" d="M33.7953 86.4245C50.5577 100.364 68.6086 106.298 74.1131 99.6782C79.6176 93.0588 70.4912 76.3928 53.7288 62.4537C36.9664 48.5145 18.9155 42.5806 13.411 49.2C7.90657 55.8193 17.0329 72.4853 33.7953 86.4245Z" fill="url(#paint4_linear_2103_2129)"/>
</g>
<g id="Group_4" filter="url(#filter2_f_2103_2129)">
<path id="Vector_6" d="M36.5279 82.5695C52.0635 95.4885 68.4126 101.446 73.0447 95.8755C77.6768 90.3053 68.8378 75.3168 53.3021 62.3978C37.7665 49.4788 21.4174 43.5215 16.7853 49.0917C12.1532 54.662 20.9923 69.6505 36.5279 82.5695Z" fill="url(#paint5_linear_2103_2129)"/>
<path id="Vector_7" d="M36.5279 82.5695C52.0635 95.4885 68.4126 101.446 73.0447 95.8755C77.6768 90.3053 68.8378 75.3168 53.3021 62.3978C37.7665 49.4788 21.4174 43.5215 16.7853 49.0917C12.1532 54.662 20.9923 69.6505 36.5279 82.5695Z" fill="url(#paint6_radial_2103_2129)"/>
<path id="Vector_8" d="M36.5279 82.5695C52.0635 95.4885 68.4126 101.446 73.0447 95.8755C77.6768 90.3053 68.8378 75.3168 53.3021 62.3978C37.7665 49.4788 21.4174 43.5215 16.7853 49.0917C12.1532 54.662 20.9923 69.6505 36.5279 82.5695Z" fill="url(#paint7_radial_2103_2129)"/>
</g>
<path id="Vector_9" d="M55.7229 68.0438C58.7127 68.0438 61.1364 65.6201 61.1364 62.6303C61.1364 59.6405 58.7127 57.2168 55.7229 57.2168C52.7331 57.2168 50.3094 59.6405 50.3094 62.6303C50.3094 65.6201 52.7331 68.0438 55.7229 68.0438Z" fill="url(#paint8_radial_2103_2129)"/>
<path id="Vector_10" d="M55.7229 68.0438C58.7127 68.0438 61.1364 65.6201 61.1364 62.6303C61.1364 59.6405 58.7127 57.2168 55.7229 57.2168C52.7331 57.2168 50.3094 59.6405 50.3094 62.6303C50.3094 65.6201 52.7331 68.0438 55.7229 68.0438Z" fill="url(#paint9_radial_2103_2129)"/>
<path id="Vector_11" d="M100.16 99.1219C103.15 99.1219 105.574 96.6982 105.574 93.7084C105.574 90.7186 103.15 88.2949 100.16 88.2949C97.1706 88.2949 94.7469 90.7186 94.7469 93.7084C94.7469 96.6982 97.1706 99.1219 100.16 99.1219Z" fill="url(#paint10_radial_2103_2129)"/>
<path id="Vector_12" d="M100.16 99.1219C103.15 99.1219 105.574 96.6982 105.574 93.7084C105.574 90.7186 103.15 88.2949 100.16 88.2949C97.1706 88.2949 94.7469 90.7186 94.7469 93.7084C94.7469 96.6982 97.1706 99.1219 100.16 99.1219Z" fill="url(#paint11_radial_2103_2129)"/>
<path id="Vector_13" d="M100.16 99.1219C103.15 99.1219 105.574 96.6982 105.574 93.7084C105.574 90.7186 103.15 88.2949 100.16 88.2949C97.1706 88.2949 94.7469 90.7186 94.7469 93.7084C94.7469 96.6982 97.1706 99.1219 100.16 99.1219Z" fill="url(#paint12_radial_2103_2129)"/>
<path id="Vector_14" d="M95.6253 27.6141C98.6151 27.6141 101.039 25.1904 101.039 22.2006C101.039 19.2108 98.6151 16.7871 95.6253 16.7871C92.6355 16.7871 90.2118 19.2108 90.2118 22.2006C90.2118 25.1904 92.6355 27.6141 95.6253 27.6141Z" fill="url(#paint13_radial_2103_2129)"/>
<path id="Vector_15" d="M95.6253 27.6141C98.6151 27.6141 101.039 25.1904 101.039 22.2006C101.039 19.2108 98.6151 16.7871 95.6253 16.7871C92.6355 16.7871 90.2118 19.2108 90.2118 22.2006C90.2118 25.1904 92.6355 27.6141 95.6253 27.6141Z" fill="url(#paint14_radial_2103_2129)"/>
<path id="Vector_16" d="M33.3811 11.1961C36.3709 11.1961 38.7946 8.77243 38.7946 5.78264C38.7946 2.79285 36.3709 0.369141 33.3811 0.369141C30.3913 0.369141 27.9676 2.79285 27.9676 5.78264C27.9676 8.77243 30.3913 11.1961 33.3811 11.1961Z" fill="url(#paint15_radial_2103_2129)"/>
<path id="Vector_17" d="M33.3811 11.1961C36.3709 11.1961 38.7946 8.77243 38.7946 5.78264C38.7946 2.79285 36.3709 0.369141 33.3811 0.369141C30.3913 0.369141 27.9676 2.79285 27.9676 5.78264C27.9676 8.77243 30.3913 11.1961 33.3811 11.1961Z" fill="url(#paint16_radial_2103_2129)"/>
<path id="Vector_18" d="M33.3811 11.1961C36.3709 11.1961 38.7946 8.77243 38.7946 5.78264C38.7946 2.79285 36.3709 0.369141 33.3811 0.369141C30.3913 0.369141 27.9676 2.79285 27.9676 5.78264C27.9676 8.77243 30.3913 11.1961 33.3811 11.1961Z" fill="url(#paint17_radial_2103_2129)"/>
<path id="Vector_19" d="M10.5999 32.536C13.5897 32.536 16.0134 30.1123 16.0134 27.1225C16.0134 24.1327 13.5897 21.709 10.5999 21.709C7.61009 21.709 5.18638 24.1327 5.18638 27.1225C5.18638 30.1123 7.61009 32.536 10.5999 32.536Z" fill="url(#paint18_radial_2103_2129)"/>
<path id="Vector_20" d="M10.5999 32.536C13.5897 32.536 16.0134 30.1123 16.0134 27.1225C16.0134 24.1327 13.5897 21.709 10.5999 21.709C7.61009 21.709 5.18638 24.1327 5.18638 27.1225C5.18638 30.1123 7.61009 32.536 10.5999 32.536Z" fill="url(#paint19_radial_2103_2129)"/>
<path id="Vector_21" d="M60.2141 107.678C48.4871 106.859 40.2611 103.349 26.9366 92.3424C15.4706 82.8699 9.77807 74.4684 7.87907 65.9004L5.67857 78.5589C6.57857 83.5179 10.4486 90.4389 18.1121 97.3689C28.1336 106.427 38.1146 112.835 47.9831 112.556C52.0731 110.962 56.1502 109.339 60.2141 107.678Z" fill="url(#paint20_radial_2103_2129)"/>
<path id="Vector_22" d="M35.466 117.37C29.8275 117.685 22.209 113.086 14.298 106.511C7.54804 100.675 4.21804 94.3341 3.51604 90.9141L1.28404 103.771C1.83304 105.944 3.52054 108.901 8.39404 113.896C13.839 119.476 19.32 121.654 22.569 122.27L29.463 119.651L35.466 117.37Z" fill="url(#paint21_radial_2103_2129)"/>
<g id="Group_5" filter="url(#filter3_i_2103_2129)">
<path id="Vector_23" fill-rule="evenodd" clip-rule="evenodd" d="M113.981 49.6329C97.7899 46.4694 88.2229 53.8854 85.1899 57.2109C84.7761 57.6844 84.2721 58.0705 83.7072 58.3467C83.1424 58.6229 82.5281 58.7835 81.9004 58.8193C81.2727 58.855 80.6441 58.7651 80.0516 58.5548C79.459 58.3445 78.9144 58.0181 78.4496 57.5947C77.9848 57.1712 77.6093 56.6593 77.3449 56.0888C77.0805 55.5183 76.9326 54.9009 76.9099 54.2725C76.8872 53.6442 76.9901 53.0176 77.2127 52.4296C77.4352 51.8415 77.7728 51.3038 78.2059 50.8479C82.9084 45.6864 95.6344 36.4164 115.794 40.3584C116.992 40.6304 118.037 41.3584 118.708 42.3879C119.378 43.4175 119.621 44.6676 119.385 45.8733C119.149 47.079 118.453 48.1454 117.444 48.8464C116.435 49.5474 115.193 49.8279 113.981 49.6284" fill="url(#paint22_radial_2103_2129)"/>
<path id="Vector_24" fill-rule="evenodd" clip-rule="evenodd" d="M113.981 49.6329C97.7899 46.4694 88.2229 53.8854 85.1899 57.2109C84.7761 57.6844 84.2721 58.0705 83.7072 58.3467C83.1424 58.6229 82.5281 58.7835 81.9004 58.8193C81.2727 58.855 80.6441 58.7651 80.0516 58.5548C79.459 58.3445 78.9144 58.0181 78.4496 57.5947C77.9848 57.1712 77.6093 56.6593 77.3449 56.0888C77.0805 55.5183 76.9326 54.9009 76.9099 54.2725C76.8872 53.6442 76.9901 53.0176 77.2127 52.4296C77.4352 51.8415 77.7728 51.3038 78.2059 50.8479C82.9084 45.6864 95.6344 36.4164 115.794 40.3584C116.992 40.6304 118.037 41.3584 118.708 42.3879C119.378 43.4175 119.621 44.6676 119.385 45.8733C119.149 47.079 118.453 48.1454 117.444 48.8464C116.435 49.5474 115.193 49.8279 113.981 49.6284" fill="url(#paint23_radial_2103_2129)"/>
</g>
<path id="Vector_25" fill-rule="evenodd" clip-rule="evenodd" d="M74.3766 0.00459193C74.9378 0.030573 75.4884 0.166919 75.9969 0.405833C76.5054 0.644748 76.9618 0.981545 77.34 1.39697C77.7182 1.81239 78.0109 2.29829 78.2012 2.82689C78.3915 3.35549 78.4757 3.91641 78.4491 4.47759C78.1663 9.34314 77.4448 14.1732 76.2936 18.9091C75.1146 23.7421 73.3011 29.0971 70.5066 33.6916C71.1816 37.2736 71.1996 41.4991 70.4571 46.3051C70.2841 47.4258 69.6729 48.4318 68.7581 49.1019C67.8433 49.7719 66.6998 50.0511 65.5791 49.8781C64.4584 49.705 63.4524 49.0939 62.7824 48.1791C62.1123 47.2643 61.8331 46.1208 62.0061 45.0001C62.1711 43.9291 62.2911 42.9211 62.3661 41.9761C61.5538 42.4007 60.7004 42.7414 59.8191 42.9931C58.2793 43.444 56.6594 43.552 55.0734 43.3094C53.4874 43.0668 51.9738 42.4796 50.6391 41.5891C45.8061 38.3716 43.5786 31.3291 47.3181 25.5691C50.8731 20.0971 58.2891 18.6076 63.9231 22.5046C64.5741 22.9546 65.1846 23.4601 65.7546 24.0211C66.6546 21.7486 67.3926 19.3186 67.9866 16.8841C69.2511 11.7001 69.7776 6.84009 69.9081 4.07709C69.9341 3.51628 70.0703 2.96607 70.3089 2.4579C70.5476 1.94972 70.884 1.49353 71.2989 1.11536C71.7138 0.737189 72.1992 0.444455 72.7273 0.253869C73.2554 0.063283 73.8158 -0.0214214 74.3766 0.00459193ZM61.1151 32.1346C60.4671 30.7846 59.6931 29.9746 59.0631 29.5381C57.2991 28.3186 55.3641 28.8856 54.4866 30.2311C54.0568 30.9161 53.9095 31.7412 54.0756 32.5327C54.2418 33.3241 54.7086 34.0203 55.3776 34.4746C55.9176 34.8346 56.6061 35.0146 57.5196 34.7581C58.3476 34.5241 59.6121 33.8536 61.1151 32.1346Z" fill="url(#paint24_linear_2103_2129)"/>
<path id="Vector_26" fill-rule="evenodd" clip-rule="evenodd" d="M74.3766 0.00459193C74.9378 0.030573 75.4884 0.166919 75.9969 0.405833C76.5054 0.644748 76.9618 0.981545 77.34 1.39697C77.7182 1.81239 78.0109 2.29829 78.2012 2.82689C78.3915 3.35549 78.4757 3.91641 78.4491 4.47759C78.1663 9.34314 77.4448 14.1732 76.2936 18.9091C75.1146 23.7421 73.3011 29.0971 70.5066 33.6916C71.1816 37.2736 71.1996 41.4991 70.4571 46.3051C70.2841 47.4258 69.6729 48.4318 68.7581 49.1019C67.8433 49.7719 66.6998 50.0511 65.5791 49.8781C64.4584 49.705 63.4524 49.0939 62.7824 48.1791C62.1123 47.2643 61.8331 46.1208 62.0061 45.0001C62.1711 43.9291 62.2911 42.9211 62.3661 41.9761C61.5538 42.4007 60.7004 42.7414 59.8191 42.9931C58.2793 43.444 56.6594 43.552 55.0734 43.3094C53.4874 43.0668 51.9738 42.4796 50.6391 41.5891C45.8061 38.3716 43.5786 31.3291 47.3181 25.5691C50.8731 20.0971 58.2891 18.6076 63.9231 22.5046C64.5741 22.9546 65.1846 23.4601 65.7546 24.0211C66.6546 21.7486 67.3926 19.3186 67.9866 16.8841C69.2511 11.7001 69.7776 6.84009 69.9081 4.07709C69.9341 3.51628 70.0703 2.96607 70.3089 2.4579C70.5476 1.94972 70.884 1.49353 71.2989 1.11536C71.7138 0.737189 72.1992 0.444455 72.7273 0.253869C73.2554 0.063283 73.8158 -0.0214214 74.3766 0.00459193ZM61.1151 32.1346C60.4671 30.7846 59.6931 29.9746 59.0631 29.5381C57.2991 28.3186 55.3641 28.8856 54.4866 30.2311C54.0568 30.9161 53.9095 31.7412 54.0756 32.5327C54.2418 33.3241 54.7086 34.0203 55.3776 34.4746C55.9176 34.8346 56.6061 35.0146 57.5196 34.7581C58.3476 34.5241 59.6121 33.8536 61.1151 32.1346Z" fill="url(#paint25_radial_2103_2129)"/>
<path id="Vector_27" fill-rule="evenodd" clip-rule="evenodd" d="M74.3766 0.00459193C74.9378 0.030573 75.4884 0.166919 75.9969 0.405833C76.5054 0.644748 76.9618 0.981545 77.34 1.39697C77.7182 1.81239 78.0109 2.29829 78.2012 2.82689C78.3915 3.35549 78.4757 3.91641 78.4491 4.47759C78.1663 9.34314 77.4448 14.1732 76.2936 18.9091C75.1146 23.7421 73.3011 29.0971 70.5066 33.6916C71.1816 37.2736 71.1996 41.4991 70.4571 46.3051C70.2841 47.4258 69.6729 48.4318 68.7581 49.1019C67.8433 49.7719 66.6998 50.0511 65.5791 49.8781C64.4584 49.705 63.4524 49.0939 62.7824 48.1791C62.1123 47.2643 61.8331 46.1208 62.0061 45.0001C62.1711 43.9291 62.2911 42.9211 62.3661 41.9761C61.5538 42.4007 60.7004 42.7414 59.8191 42.9931C58.2793 43.444 56.6594 43.552 55.0734 43.3094C53.4874 43.0668 51.9738 42.4796 50.6391 41.5891C45.8061 38.3716 43.5786 31.3291 47.3181 25.5691C50.8731 20.0971 58.2891 18.6076 63.9231 22.5046C64.5741 22.9546 65.1846 23.4601 65.7546 24.0211C66.6546 21.7486 67.3926 19.3186 67.9866 16.8841C69.2511 11.7001 69.7776 6.84009 69.9081 4.07709C69.9341 3.51628 70.0703 2.96607 70.3089 2.4579C70.5476 1.94972 70.884 1.49353 71.2989 1.11536C71.7138 0.737189 72.1992 0.444455 72.7273 0.253869C73.2554 0.063283 73.8158 -0.0214214 74.3766 0.00459193ZM61.1151 32.1346C60.4671 30.7846 59.6931 29.9746 59.0631 29.5381C57.2991 28.3186 55.3641 28.8856 54.4866 30.2311C54.0568 30.9161 53.9095 31.7412 54.0756 32.5327C54.2418 33.3241 54.7086 34.0203 55.3776 34.4746C55.9176 34.8346 56.6061 35.0146 57.5196 34.7581C58.3476 34.5241 59.6121 33.8536 61.1151 32.1346Z" fill="url(#paint26_radial_2103_2129)"/>
<path id="Vector_28" fill-rule="evenodd" clip-rule="evenodd" d="M74.3766 0.00459193C74.9378 0.030573 75.4884 0.166919 75.9969 0.405833C76.5054 0.644748 76.9618 0.981545 77.34 1.39697C77.7182 1.81239 78.0109 2.29829 78.2012 2.82689C78.3915 3.35549 78.4757 3.91641 78.4491 4.47759C78.1663 9.34314 77.4448 14.1732 76.2936 18.9091C75.1146 23.7421 73.3011 29.0971 70.5066 33.6916C71.1816 37.2736 71.1996 41.4991 70.4571 46.3051C70.2841 47.4258 69.6729 48.4318 68.7581 49.1019C67.8433 49.7719 66.6998 50.0511 65.5791 49.8781C64.4584 49.705 63.4524 49.0939 62.7824 48.1791C62.1123 47.2643 61.8331 46.1208 62.0061 45.0001C62.1711 43.9291 62.2911 42.9211 62.3661 41.9761C61.5538 42.4007 60.7004 42.7414 59.8191 42.9931C58.2793 43.444 56.6594 43.552 55.0734 43.3094C53.4874 43.0668 51.9738 42.4796 50.6391 41.5891C45.8061 38.3716 43.5786 31.3291 47.3181 25.5691C50.8731 20.0971 58.2891 18.6076 63.9231 22.5046C64.5741 22.9546 65.1846 23.4601 65.7546 24.0211C66.6546 21.7486 67.3926 19.3186 67.9866 16.8841C69.2511 11.7001 69.7776 6.84009 69.9081 4.07709C69.9341 3.51628 70.0703 2.96607 70.3089 2.4579C70.5476 1.94972 70.884 1.49353 71.2989 1.11536C71.7138 0.737189 72.1992 0.444455 72.7273 0.253869C73.2554 0.063283 73.8158 -0.0214214 74.3766 0.00459193ZM61.1151 32.1346C60.4671 30.7846 59.6931 29.9746 59.0631 29.5381C57.2991 28.3186 55.3641 28.8856 54.4866 30.2311C54.0568 30.9161 53.9095 31.7412 54.0756 32.5327C54.2418 33.3241 54.7086 34.0203 55.3776 34.4746C55.9176 34.8346 56.6061 35.0146 57.5196 34.7581C58.3476 34.5241 59.6121 33.8536 61.1151 32.1346Z" fill="url(#paint27_radial_2103_2129)"/>
<path id="Vector_29" fill-rule="evenodd" clip-rule="evenodd" d="M50.7039 92.3685C47.4024 90.5281 44.2233 88.4763 41.1864 86.226C46.0734 80.1645 54.8079 72.2175 66.1929 66.48C84.8994 57.048 105.527 62.1645 113.938 65.499C114.625 65.7714 115.251 66.1764 115.781 66.6909C116.311 67.2053 116.735 67.8192 117.028 68.4974C117.321 69.1756 117.477 69.9048 117.488 70.6435C117.499 71.3822 117.365 72.1158 117.092 72.8025C116.82 73.4891 116.415 74.1154 115.9 74.6456C115.386 75.1758 114.772 75.5994 114.094 75.8923C113.416 76.1852 112.687 76.3417 111.948 76.3528C111.209 76.3639 110.476 76.2294 109.789 75.957C102.584 73.0995 85.7364 69.225 71.2554 76.524C61.7064 81.339 54.6054 87.81 50.7039 92.3685Z" fill="url(#paint28_linear_2103_2129)"/>
<path id="Vector_30" fill-rule="evenodd" clip-rule="evenodd" d="M50.7039 92.3685C47.4024 90.5281 44.2233 88.4763 41.1864 86.226C46.0734 80.1645 54.8079 72.2175 66.1929 66.48C84.8994 57.048 105.527 62.1645 113.938 65.499C114.625 65.7714 115.251 66.1764 115.781 66.6909C116.311 67.2053 116.735 67.8192 117.028 68.4974C117.321 69.1756 117.477 69.9048 117.488 70.6435C117.499 71.3822 117.365 72.1158 117.092 72.8025C116.82 73.4891 116.415 74.1154 115.9 74.6456C115.386 75.1758 114.772 75.5994 114.094 75.8923C113.416 76.1852 112.687 76.3417 111.948 76.3528C111.209 76.3639 110.476 76.2294 109.789 75.957C102.584 73.0995 85.7364 69.225 71.2554 76.524C61.7064 81.339 54.6054 87.81 50.7039 92.3685Z" fill="url(#paint29_radial_2103_2129)"/>
<path id="Vector_31" fill-rule="evenodd" clip-rule="evenodd" d="M50.7039 92.3685C47.4024 90.5281 44.2233 88.4763 41.1864 86.226C46.0734 80.1645 54.8079 72.2175 66.1929 66.48C84.8994 57.048 105.527 62.1645 113.938 65.499C114.625 65.7714 115.251 66.1764 115.781 66.6909C116.311 67.2053 116.735 67.8192 117.028 68.4974C117.321 69.1756 117.477 69.9048 117.488 70.6435C117.499 71.3822 117.365 72.1158 117.092 72.8025C116.82 73.4891 116.415 74.1154 115.9 74.6456C115.386 75.1758 114.772 75.5994 114.094 75.8923C113.416 76.1852 112.687 76.3417 111.948 76.3528C111.209 76.3639 110.476 76.2294 109.789 75.957C102.584 73.0995 85.7364 69.225 71.2554 76.524C61.7064 81.339 54.6054 87.81 50.7039 92.3685Z" fill="url(#paint30_radial_2103_2129)"/>
<path id="Vector_32" fill-rule="evenodd" clip-rule="evenodd" d="M50.7039 92.3685C47.4024 90.5281 44.2233 88.4763 41.1864 86.226C46.0734 80.1645 54.8079 72.2175 66.1929 66.48C84.8994 57.048 105.527 62.1645 113.938 65.499C114.625 65.7714 115.251 66.1764 115.781 66.6909C116.311 67.2053 116.735 67.8192 117.028 68.4974C117.321 69.1756 117.477 69.9048 117.488 70.6435C117.499 71.3822 117.365 72.1158 117.092 72.8025C116.82 73.4891 116.415 74.1154 115.9 74.6456C115.386 75.1758 114.772 75.5994 114.094 75.8923C113.416 76.1852 112.687 76.3417 111.948 76.3528C111.209 76.3639 110.476 76.2294 109.789 75.957C102.584 73.0995 85.7364 69.225 71.2554 76.524C61.7064 81.339 54.6054 87.81 50.7039 92.3685Z" fill="url(#paint31_radial_2103_2129)"/>
<g id="Group_6" filter="url(#filter4_i_2103_2129)">
<path id="Vector_33" fill-rule="evenodd" clip-rule="evenodd" d="M34.2779 20.5719C33.9183 19.9263 33.4351 19.3578 32.8558 18.899C32.2765 18.4401 31.6125 18.0998 30.9017 17.8976C30.1909 17.6954 29.4473 17.6351 28.7132 17.7202C27.9791 17.8054 27.269 18.0343 26.6234 18.3939C25.9778 18.7535 25.4093 19.2367 24.9505 19.816C24.4916 20.3953 24.1513 21.0593 23.9491 21.7701C23.7469 22.4809 23.6866 23.2245 23.7717 23.9586C23.8569 24.6927 24.0858 25.4028 24.4454 26.0484C26.7269 30.1434 29.5349 35.9349 29.8949 43.3869C30.2099 49.8804 28.6799 58.1154 22.4654 67.9974C24.8252 71.0873 27.4043 74.0034 30.1829 76.7229C38.9489 63.9744 41.5994 52.5534 41.1314 42.8424C40.6499 32.8074 36.8474 25.1934 34.2779 20.5719Z" fill="url(#paint32_radial_2103_2129)"/>
<path id="Vector_34" fill-rule="evenodd" clip-rule="evenodd" d="M34.2779 20.5719C33.9183 19.9263 33.4351 19.3578 32.8558 18.899C32.2765 18.4401 31.6125 18.0998 30.9017 17.8976C30.1909 17.6954 29.4473 17.6351 28.7132 17.7202C27.9791 17.8054 27.269 18.0343 26.6234 18.3939C25.9778 18.7535 25.4093 19.2367 24.9505 19.816C24.4916 20.3953 24.1513 21.0593 23.9491 21.7701C23.7469 22.4809 23.6866 23.2245 23.7717 23.9586C23.8569 24.6927 24.0858 25.4028 24.4454 26.0484C26.7269 30.1434 29.5349 35.9349 29.8949 43.3869C30.2099 49.8804 28.6799 58.1154 22.4654 67.9974C24.8252 71.0873 27.4043 74.0034 30.1829 76.7229C38.9489 63.9744 41.5994 52.5534 41.1314 42.8424C40.6499 32.8074 36.8474 25.1934 34.2779 20.5719Z" fill="url(#paint33_radial_2103_2129)"/>
</g>
<path id="Vector_35" d="M46.2665 27.5913C46.5425 26.9073 46.8935 26.2353 47.3195 25.5753C50.8745 20.0988 58.2905 18.6093 63.9245 22.5063C64.5755 22.9563 65.186 23.4618 65.756 24.0228C65.936 23.5578 66.113 23.0868 66.287 22.6098L66.3095 22.6998C65.153 26.3448 62.5565 30.2508 61.112 32.1318C60.464 30.7818 59.6945 29.9718 59.0645 29.5398C57.3005 28.3203 55.361 28.8873 54.488 30.2328L54.3935 30.3903L46.2665 27.5913Z" fill="url(#paint34_radial_2103_2129)"/>
<path id="Vector_36" d="M46.2665 27.5913C46.5425 26.9073 46.8935 26.2353 47.3195 25.5753C50.8745 20.0988 58.2905 18.6093 63.9245 22.5063C64.5755 22.9563 65.186 23.4618 65.756 24.0228C65.936 23.5578 66.113 23.0868 66.287 22.6098L66.3095 22.6998C65.153 26.3448 62.5565 30.2508 61.112 32.1318C60.464 30.7818 59.6945 29.9718 59.0645 29.5398C57.3005 28.3203 55.361 28.8873 54.488 30.2328L54.3935 30.3903L46.2665 27.5913Z" fill="url(#paint35_radial_2103_2129)"/>
<g id="Group_7" filter="url(#filter5_i_2103_2129)">
<path id="Vector_37" d="M70.5166 33.6967C71.1916 37.2787 71.2096 41.5087 70.4671 46.3102C70.294 47.4309 69.6829 48.4369 68.768 49.107C67.8532 49.777 66.7097 50.0563 65.5891 49.8832C64.4684 49.7102 63.4624 49.099 62.7923 48.1842C62.1222 47.2694 61.843 46.1259 62.0161 45.0052C62.1811 43.9342 62.3011 42.9292 62.3761 41.9902C66.7951 39.2137 69.7111 35.5237 70.5166 33.6967Z" fill="var(--fill-0, #44B6FF)"/>
</g>
<path id="Vector_38" d="M70.5143 33.6973C71.1893 37.2793 71.2073 41.5093 70.4648 46.3108C70.2918 47.4314 69.6806 48.4375 68.7658 49.1075C67.851 49.7776 66.7075 50.0568 65.5868 49.8838C64.4661 49.7107 63.4601 49.0996 62.7901 48.1848C62.12 47.27 61.8408 46.1264 62.0138 45.0058C62.1788 43.9348 62.2988 42.9298 62.3738 41.9908C66.7928 39.2143 69.7088 35.5243 70.5143 33.6973Z" fill="url(#paint36_radial_2103_2129)"/>
<g id="Group_8" filter="url(#filter6_f_2103_2129)">
<path id="Vector_39" d="M62.8851 27.4046C61.6881 25.7846 57.8541 22.9046 53.0391 25.8926C51.4236 26.8961 50.4741 30.6716 51.2121 33.2411" stroke="url(#paint37_linear_2103_2129)" stroke-width="0.590625" stroke-linecap="round"/>
</g>
<g id="Group_9" filter="url(#filter7_f_2103_2129)">
<path id="Vector_40" d="M76.048 4.20006C75.67 10.9951 72.727 27.0376 63.952 36.8251" stroke="url(#paint38_linear_2103_2129)" stroke-width="0.590625" stroke-linecap="round"/>
</g>
</g>
<defs>
<filter id="filter0_i_2103_2129" x="-4.08902e-07" y="44.4383" width="77.2272" height="81.0146" filterUnits="userSpaceOnUse" color-interpolation-filters="sRGB">
<feFlood flood-opacity="0" result="BackgroundImageFix"/>
<feBlend mode="normal" in="SourceGraphic" in2="BackgroundImageFix" result="shape"/>
<feColorMatrix in="SourceAlpha" type="matrix" values="0 0 0 0 0 0 0 0 0 0 0 0 0 0 0 0 0 0 127 0" result="hardAlpha"/>
<feOffset dy="-0.984375"/>
<feGaussianBlur stdDeviation="0.984375"/>
<feComposite in2="hardAlpha" operator="arithmetic" k2="-1" k3="1"/>
<feColorMatrix type="matrix" values="0 0 0 0 0.92549 0 0 0 0 0.34902 0 0 0 0 0.384314 0 0 0 1 0"/>
<feBlend mode="normal" in2="shape" result="effect1_innerShadow_2103_2129"/>
</filter>
<filter id="filter1_f_2103_2129" x="10.8235" y="45.5078" width="65.8772" height="57.8625" filterUnits="userSpaceOnUse" color-interpolation-filters="sRGB">
<feFlood flood-opacity="0" result="BackgroundImageFix"/>
<feBlend mode="normal" in="SourceGraphic" in2="BackgroundImageFix" result="shape"/>
<feGaussianBlur stdDeviation="0.492188" result="effect1_foregroundBlur_2103_2129"/>
</filter>
<filter id="filter2_f_2103_2129" x="15.1601" y="46.6097" width="59.5098" height="51.7478" filterUnits="userSpaceOnUse" color-interpolation-filters="sRGB">
<feFlood flood-opacity="0" result="BackgroundImageFix"/>
<feBlend mode="normal" in="SourceGraphic" in2="BackgroundImageFix" result="shape"/>
<feGaussianBlur stdDeviation="0.196875" result="effect1_foregroundBlur_2103_2129"/>
</filter>
<filter id="filter3_i_2103_2129" x="76.9068" y="38.916" width="43.0585" height="19.9109" filterUnits="userSpaceOnUse" color-interpolation-filters="sRGB">
<feFlood flood-opacity="0" result="BackgroundImageFix"/>
<feBlend mode="normal" in="SourceGraphic" in2="BackgroundImageFix" result="shape"/>
<feColorMatrix in="SourceAlpha" type="matrix" values="0 0 0 0 0 0 0 0 0 0 0 0 0 0 0 0 0 0 127 0" result="hardAlpha"/>
<feOffset dx="0.492188" dy="-0.492188"/>
<feGaussianBlur stdDeviation="0.492188"/>
<feComposite in2="hardAlpha" operator="arithmetic" k2="-1" k3="1"/>
<feColorMatrix type="matrix" values="0 0 0 0 0.721569 0 0 0 0 0.270588 0 0 0 0 0.470588 0 0 0 1 0"/>
<feBlend mode="normal" in2="shape" result="effect1_innerShadow_2103_2129"/>
</filter>
<filter id="filter4_i_2103_2129" x="22.4654" y="17.6828" width="19.0128" height="59.5323" filterUnits="userSpaceOnUse" color-interpolation-filters="sRGB">
<feFlood flood-opacity="0" result="BackgroundImageFix"/>
<feBlend mode="normal" in="SourceGraphic" in2="BackgroundImageFix" result="shape"/>
<feColorMatrix in="SourceAlpha" type="matrix" values="0 0 0 0 0 0 0 0 0 0 0 0 0 0 0 0 0 0 127 0" result="hardAlpha"/>
<feOffset dx="0.295313" dy="0.492188"/>
<feGaussianBlur stdDeviation="0.984375"/>
<feComposite in2="hardAlpha" operator="arithmetic" k2="-1" k3="1"/>
<feColorMatrix type="matrix" values="0 0 0 0 0.721569 0 0 0 0 0.184314 0 0 0 0 0.447059 0 0 0 1 0"/>
<feBlend mode="normal" in2="shape" result="effect1_innerShadow_2103_2129"/>
</filter>
<filter id="filter5_i_2103_2129" x="61.966" y="33.2045" width="10.0419" height="16.7288" filterUnits="userSpaceOnUse" color-interpolation-filters="sRGB">
<feFlood flood-opacity="0" result="BackgroundImageFix"/>
<feBlend mode="normal" in="SourceGraphic" in2="BackgroundImageFix" result="shape"/>
<feColorMatrix in="SourceAlpha" type="matrix" values="0 0 0 0 0 0 0 0 0 0 0 0 0 0 0 0 0 0 127 0" result="hardAlpha"/>
<feOffset dx="0.984375" dy="-0.492188"/>
<feGaussianBlur stdDeviation="0.639844"/>
<feComposite in2="hardAlpha" operator="arithmetic" k2="-1" k3="1"/>
<feColorMatrix type="matrix" values="0 0 0 0 0.239216 0 0 0 0 0.439216 0 0 0 0 0.768627 0 0 0 1 0"/>
<feBlend mode="normal" in2="shape" result="effect1_innerShadow_2103_2129"/>
</filter>
<filter id="filter6_f_2103_2129" x="50.0722" y="23.707" width="13.6989" height="10.4201" filterUnits="userSpaceOnUse" color-interpolation-filters="sRGB">
<feFlood flood-opacity="0" result="BackgroundImageFix"/>
<feBlend mode="normal" in="SourceGraphic" in2="BackgroundImageFix" result="shape"/>
<feGaussianBlur stdDeviation="0.295313" result="effect1_foregroundBlur_2103_2129"/>
</filter>
<filter id="filter7_f_2103_2129" x="62.7708" y="3.0188" width="14.4585" height="34.9875" filterUnits="userSpaceOnUse" color-interpolation-filters="sRGB">
<feFlood flood-opacity="0" result="BackgroundImageFix"/>
<feBlend mode="normal" in="SourceGraphic" in2="BackgroundImageFix" result="shape"/>
<feGaussianBlur stdDeviation="0.442969" result="effect1_foregroundBlur_2103_2129"/>
</filter>
<linearGradient id="paint0_linear_2103_2129" x1="7.41554" y1="80.5608" x2="43.6945" y2="112.061" gradientUnits="userSpaceOnUse">
<stop stop-color="#B3843C"/>
<stop offset="1" stop-color="#F17A61"/>
</linearGradient>
<linearGradient id="paint1_linear_2103_2129" x1="3.40688" y1="85.438" x2="14.0224" y2="87.5935" gradientUnits="userSpaceOnUse">
<stop stop-color="#B1853B"/>
<stop offset="1" stop-color="#B1853B" stop-opacity="0"/>
</linearGradient>
<linearGradient id="paint2_linear_2103_2129" x1="77.2294" y1="97.858" x2="59.3059" y2="100.81" gradientUnits="userSpaceOnUse">
<stop stop-color="#F9C26C"/>
<stop offset="1" stop-color="#F9C26C" stop-opacity="0"/>
</linearGradient>
<linearGradient id="paint3_linear_2103_2129" x1="38.6149" y1="46.3915" x2="27.1039" y2="65.935" gradientUnits="userSpaceOnUse">
<stop stop-color="#E6BF69"/>
<stop offset="1" stop-color="#E6BF69" stop-opacity="0"/>
</linearGradient>
<linearGradient id="paint4_linear_2103_2129" x1="34.699" y1="85.5138" x2="58.0575" y2="64.6662" gradientUnits="userSpaceOnUse">
<stop stop-color="#FCCB57"/>
<stop offset="1" stop-color="#F5BD55"/>
</linearGradient>
<linearGradient id="paint5_linear_2103_2129" x1="20.2099" y1="50.055" x2="74.9143" y2="100.257" gradientUnits="userSpaceOnUse">
<stop stop-color="#F3AB2C"/>
<stop offset="1" stop-color="#B57F1E"/>
</linearGradient>
<radialGradient id="paint6_radial_2103_2129" cx="0" cy="0" r="1" gradientUnits="userSpaceOnUse" gradientTransform="translate(24.0129 68.76) rotate(-69.379) scale(29.1487 8.16421)">
<stop offset="0.423" stop-color="#CA851E"/>
<stop offset="1" stop-color="#CA851E" stop-opacity="0"/>
</radialGradient>
<radialGradient id="paint7_radial_2103_2129" cx="0" cy="0" r="1" gradientUnits="userSpaceOnUse" gradientTransform="translate(47.2139 88.588) rotate(-33.3512) scale(29.2929 17.1542)">
<stop stop-color="#BC7F28"/>
<stop offset="1" stop-color="#BC7F28" stop-opacity="0"/>
</radialGradient>
<radialGradient id="paint8_radial_2103_2129" cx="0" cy="0" r="1" gradientUnits="userSpaceOnUse" gradientTransform="translate(58.1144 61.1556) rotate(138.668) scale(7.77199)">
<stop stop-color="#5AC0FF"/>
<stop offset="1" stop-color="#3279B6"/>
</radialGradient>
<radialGradient id="paint9_radial_2103_2129" cx="0" cy="0" r="1" gradientUnits="userSpaceOnUse" gradientTransform="translate(56.7894 61.8833) rotate(160.051) scale(7.80476 8.55501)">
<stop offset="0.535" stop-color="#3A619E" stop-opacity="0"/>
<stop offset="1" stop-color="#3A619E"/>
</radialGradient>
<radialGradient id="paint10_radial_2103_2129" cx="0" cy="0" r="1" gradientUnits="userSpaceOnUse" gradientTransform="translate(103.297 91.4191) rotate(134.569) scale(8.89889)">
<stop stop-color="#FDD46C"/>
<stop offset="1" stop-color="#F09C53"/>
</radialGradient>
<radialGradient id="paint11_radial_2103_2129" cx="0" cy="0" r="1" gradientUnits="userSpaceOnUse" gradientTransform="translate(101.164 90.9522) rotate(100.827) scale(8.81474)">
<stop offset="0.792" stop-color="#E76260" stop-opacity="0"/>
<stop offset="0.964" stop-color="#E76260"/>
</radialGradient>
<radialGradient id="paint12_radial_2103_2129" cx="0" cy="0" r="1" gradientUnits="userSpaceOnUse" gradientTransform="translate(102.743 94.6039) rotate(-147.558) scale(8.92668 10.5124)">
<stop offset="0.482" stop-color="#AA885A" stop-opacity="0"/>
<stop offset="0.907" stop-color="#AA885A"/>
</radialGradient>
<radialGradient id="paint13_radial_2103_2129" cx="0" cy="0" r="1" gradientUnits="userSpaceOnUse" gradientTransform="translate(99.5027 20.092) rotate(132.387) scale(9.27054)">
<stop stop-color="#FF46AA"/>
<stop offset="1" stop-color="#E3189D"/>
</radialGradient>
<radialGradient id="paint14_radial_2103_2129" cx="0" cy="0" r="1" gradientUnits="userSpaceOnUse" gradientTransform="translate(97.9113 23.1816) rotate(-173.29) scale(8.42491 11.2752)">
<stop offset="0.522" stop-color="#B63173" stop-opacity="0"/>
<stop offset="1" stop-color="#B63173"/>
</radialGradient>
<radialGradient id="paint15_radial_2103_2129" cx="0" cy="0" r="1" gradientUnits="userSpaceOnUse" gradientTransform="translate(36.9245 3.61606) rotate(139.574) scale(8.28531)">
<stop stop-color="#FFF46F"/>
<stop offset="1" stop-color="#EFB93C"/>
</radialGradient>
<radialGradient id="paint16_radial_2103_2129" cx="0" cy="0" r="1" gradientUnits="userSpaceOnUse" gradientTransform="translate(35.7392 4.90471) rotate(-178.519) scale(8.61588 8.20337)">
<stop offset="0.559" stop-color="#AA904B" stop-opacity="0"/>
<stop offset="0.944" stop-color="#AA904B"/>
</radialGradient>
<radialGradient id="paint17_radial_2103_2129" cx="0" cy="0" r="1" gradientUnits="userSpaceOnUse" gradientTransform="translate(34.7716 2.72714) rotate(102.339) scale(9.21282)">
<stop offset="0.772" stop-color="#C47072" stop-opacity="0"/>
<stop offset="1" stop-color="#C47072"/>
</radialGradient>
<radialGradient id="paint18_radial_2103_2129" cx="0" cy="0" r="1" gradientUnits="userSpaceOnUse" gradientTransform="translate(14.484 25.0166) rotate(132.387) scale(9.27054)">
<stop stop-color="#FF46AA"/>
<stop offset="1" stop-color="#E3189D"/>
</radialGradient>
<radialGradient id="paint19_radial_2103_2129" cx="0" cy="0" r="1" gradientUnits="userSpaceOnUse" gradientTransform="translate(12.8859 28.108) rotate(-173.29) scale(8.42492 11.2752)">
<stop offset="0.522" stop-color="#B63173" stop-opacity="0"/>
<stop offset="1" stop-color="#B63173"/>
</radialGradient>
<radialGradient id="paint20_radial_2103_2129" cx="0" cy="0" r="1" gradientUnits="userSpaceOnUse" gradientTransform="translate(38.9246 103.484) rotate(133.21) scale(19.1012 41.8207)">
<stop stop-color="#3365FF"/>
<stop offset="1" stop-color="#356DB9"/>
</radialGradient>
<radialGradient id="paint21_radial_2103_2129" cx="0" cy="0" r="1" gradientUnits="userSpaceOnUse" gradientTransform="translate(21.752 116.708) rotate(131.598) scale(11.7908 29.8257)">
<stop stop-color="#3365FF"/>
<stop offset="1" stop-color="#356DB9"/>
</radialGradient>
<radialGradient id="paint22_radial_2103_2129" cx="0" cy="0" r="1" gradientUnits="userSpaceOnUse" gradientTransform="translate(112.321 44.1509) rotate(168.283) scale(19.3884 7.23339)">
<stop stop-color="#FF3BA9"/>
<stop offset="1" stop-color="#F422A7"/>
</radialGradient>
<radialGradient id="paint23_radial_2103_2129" cx="0" cy="0" r="1" gradientUnits="userSpaceOnUse" gradientTransform="translate(98.2944 59.6167) rotate(-127.355) scale(19.9908 35.6277)">
<stop offset="0.752" stop-color="#B8306F" stop-opacity="0"/>
<stop offset="1" stop-color="#B8306F"/>
</radialGradient>
<linearGradient id="paint24_linear_2103_2129" x1="74.1876" y1="9.11762e-05" x2="54.0186" y2="48.3391" gradientUnits="userSpaceOnUse">
<stop stop-color="#20B2EE"/>
<stop offset="1" stop-color="#2689DA"/>
</linearGradient>
<radialGradient id="paint25_radial_2103_2129" cx="0" cy="0" r="1" gradientUnits="userSpaceOnUse" gradientTransform="translate(69.7602 15.7053) rotate(128.217) scale(34.9229 21.3615)">
<stop offset="0.802" stop-color="#4274D2" stop-opacity="0"/>
<stop offset="0.951" stop-color="#4274D2"/>
</radialGradient>
<radialGradient id="paint26_radial_2103_2129" cx="0" cy="0" r="1" gradientUnits="userSpaceOnUse" gradientTransform="translate(68.0136 11.6596) rotate(12.095) scale(5.03361 16.8982)">
<stop stop-color="#4D8EC0"/>
<stop offset="1" stop-color="#4D8EC0" stop-opacity="0"/>
</radialGradient>
<radialGradient id="paint27_radial_2103_2129" cx="0" cy="0" r="1" gradientUnits="userSpaceOnUse" gradientTransform="translate(78.0017 0.758103) rotate(141.953) scale(6.16068 5.53887)">
<stop stop-color="#5ADEFF"/>
<stop offset="1" stop-color="#5ADEFF" stop-opacity="0"/>
</radialGradient>
<linearGradient id="paint28_linear_2103_2129" x1="53.4399" y1="88.269" x2="113.785" y2="72.456" gradientUnits="userSpaceOnUse">
<stop stop-color="#3797E2"/>
<stop offset="1" stop-color="#37AEFF"/>
</linearGradient>
<radialGradient id="paint29_radial_2103_2129" cx="0" cy="0" r="1" gradientUnits="userSpaceOnUse" gradientTransform="translate(75.7614 98.1313) rotate(-129.838) scale(35.9101 90.0162)">
<stop offset="0.623" stop-color="#526579" stop-opacity="0"/>
<stop offset="0.962" stop-color="#526579"/>
</radialGradient>
<radialGradient id="paint30_radial_2103_2129" cx="0" cy="0" r="1" gradientUnits="userSpaceOnUse" gradientTransform="translate(95.9289 78.7515) rotate(94.399) scale(12.3264 24.7824)">
<stop offset="0.396" stop-color="#6972FF"/>
<stop offset="1" stop-color="#6972FF" stop-opacity="0"/>
</radialGradient>
<radialGradient id="paint31_radial_2103_2129" cx="0" cy="0" r="1" gradientUnits="userSpaceOnUse" gradientTransform="translate(114.208 68.397) rotate(-68.8191) scale(3.37967 2.66523)">
<stop stop-color="#55BFFF"/>
<stop offset="1" stop-color="#55BFFF" stop-opacity="0"/>
</radialGradient>
<radialGradient id="paint32_radial_2103_2129" cx="0" cy="0" r="1" gradientUnits="userSpaceOnUse" gradientTransform="translate(37.2119 19.5954) rotate(99.4229) scale(32.9033 12.3269)">
<stop stop-color="#FF3AAA"/>
<stop offset="1" stop-color="#FD2F89"/>
</radialGradient>
<radialGradient id="paint33_radial_2103_2129" cx="0" cy="0" r="1" gradientUnits="userSpaceOnUse" gradientTransform="translate(20.0298 53.5264) rotate(31.176) scale(21.638 67.9064)">
<stop offset="0.804" stop-color="#DB2C6E" stop-opacity="0"/>
<stop offset="1" stop-color="#DB2C6E"/>
</radialGradient>
<radialGradient id="paint34_radial_2103_2129" cx="0" cy="0" r="1" gradientUnits="userSpaceOnUse" gradientTransform="translate(62.3027 33.4726) rotate(-119.23) scale(12.3225 9.21119)">
<stop stop-color="#336BAF"/>
<stop offset="1" stop-color="#336BAF" stop-opacity="0"/>
</radialGradient>
<radialGradient id="paint35_radial_2103_2129" cx="0" cy="0" r="1" gradientUnits="userSpaceOnUse" gradientTransform="translate(66.314 24.1758) rotate(-127.657) scale(8.34801 3.38221)">
<stop stop-color="#49A4D4"/>
<stop offset="1" stop-color="#49A4D4" stop-opacity="0"/>
</radialGradient>
<radialGradient id="paint36_radial_2103_2129" cx="0" cy="0" r="1" gradientUnits="userSpaceOnUse" gradientTransform="translate(70.0733 33.3238) rotate(94.8501) scale(11.6433 6.47998)">
<stop stop-color="#4AB5F8"/>
<stop offset="1" stop-color="#4AB5F8" stop-opacity="0"/>
</radialGradient>
<linearGradient id="paint37_linear_2103_2129" x1="49.5966" y1="27.4811" x2="62.1111" y2="24.4166" gradientUnits="userSpaceOnUse">
<stop stop-color="#4EAFF2"/>
<stop offset="1" stop-color="#4EAFF2" stop-opacity="0"/>
</linearGradient>
<linearGradient id="paint38_linear_2103_2129" x1="75.0625" y1="-0.583444" x2="57.4855" y2="39.9166" gradientUnits="userSpaceOnUse">
<stop stop-color="#5BDDFF"/>
<stop offset="1" stop-color="#5BDDFF" stop-opacity="0"/>
</linearGradient>
</defs>
</svg>
